<svg xmlns="http://www.w3.org/2000/svg" width="418.819" height="91.7"><path fill="#70797F" d="M86.104 76.663v-2.326h-6.803v-2.529h9.712v11.469h-2.909v-4.063h-6.566v-2.551h6.566zm3.908-1.52h2.221v-3.336h2.907v19.844h-2.907V77.69h-2.221v-2.547zm6.873-3.336h2.908v19.844h-2.908V71.807zm17.915 1.358c1.211-1.172 2.678-1.76 4.401-1.76 1.721 0 3.188.588 4.4 1.76 1.211 1.172 1.818 2.574 1.818 4.211 0 1.666-.607 3.086-1.818 4.26-1.212 1.172-2.679 1.758-4.4 1.758-1.723 0-3.19-.586-4.401-1.758-1.212-1.174-1.817-2.594-1.817-4.26-.001-1.637.604-3.04 1.817-4.211zm2.077 1.802c-.658.674-.987 1.492-.987 2.455 0 .93.329 1.734.987 2.408.66.676 1.433 1.014 2.323 1.014.889 0 1.662-.338 2.322-1.014.658-.674.988-1.479.988-2.408 0-.963-.33-1.781-.988-2.455-.66-.676-1.434-1.012-2.322-1.012-.889.001-1.663.337-2.323 1.012zm13.239-3.14h2.907V91.67h-2.907V71.827zm17.916 1.338c1.213-1.172 2.68-1.76 4.401-1.76s3.188.588 4.399 1.76c1.213 1.172 1.818 2.574 1.818 4.211 0 1.666-.605 3.086-1.818 4.26-1.211 1.172-2.678 1.758-4.399 1.758s-3.188-.586-4.401-1.758c-1.211-1.174-1.816-2.594-1.816-4.26 0-1.637.605-3.04 1.816-4.211zm2.079 1.802c-.659.674-.989 1.492-.989 2.455 0 .93.33 1.734.989 2.408.659.676 1.434 1.014 2.322 1.014s1.662-.338 2.321-1.014c.66-.674.989-1.479.989-2.408 0-.963-.329-1.781-.989-2.455-.659-.676-1.433-1.012-2.321-1.012s-1.662.337-2.322 1.012zm15.699 2.744v13.938h-2.908V71.807h2.908v3.355h2.125v2.549h-2.125zm15.456-4.546c1.212-1.172 2.679-1.76 4.401-1.76 1.721 0 3.188.588 4.4 1.76 1.211 1.172 1.816 2.574 1.816 4.211 0 1.666-.605 3.086-1.816 4.26-1.213 1.172-2.68 1.758-4.4 1.758-1.723 0-3.189-.586-4.401-1.758-1.212-1.174-1.817-2.594-1.817-4.26-.001-1.637.605-3.04 1.817-4.211zm2.079 1.802c-.659.674-.988 1.492-.988 2.455 0 .93.329 1.734.988 2.408.658.676 1.434 1.014 2.322 1.014s1.662-.338 2.322-1.014c.657-.674.988-1.479.988-2.408 0-.963-.331-1.781-.988-2.455-.66-.676-1.434-1.012-2.322-1.012s-1.664.337-2.322 1.012zm13.236-3.14h2.908V91.67h-2.908V71.827zm18.607 7.093v2.191h9.496v2.549H212.28V71.807h12.404v2.549h-9.496v2.014h9.496v2.551h-9.496zm14.627-7.113h2.906v19.844h-2.906V71.807zm23.877 9.959h-8.443v-7.354h2.557v1.684h3.33v-1.684h2.557v7.354zm6.81 3.867h-15.084v-2.215h17.639v5.035h-15.084v.682h15.084v2.215h-17.639v-5.107h15.084v-.61zm-12.697-6.082h3.33v-1.24h-3.33v1.24zm12.697-.754h-2.045v2.961h-2.555v-7.354h2.555v2.18h2.045v-2.18h2.555v7.354h-2.555v-2.961zm23.11-2.154h-8.27V74.43h10.825v6.08h-8.272v2.02h8.272v2.215h-10.825v-6.448h8.27zm6.982-2.213h2.555v17.264h-2.555zm17.119 17.27c-1.48-2.654-2.244-5.516-2.293-8.582-.045-3.066.717-5.973 2.293-8.723h1.338c-1.574 2.795-2.361 5.586-2.361 8.373 0 2.779.787 5.76 2.361 8.932h-1.338zm8.842-15.045h-5.205v-2.213h17.26v2.213h-5.25l5.414 5.166h-3.24l-5.574-5.166-5.537 5.166h-3.279l5.411-5.166zm2.174 15.006v-5.904h-7.543v-2.213h17.588v2.213h-7.506v5.904h-2.539zm14.416-8.893c0-2.787-.787-5.578-2.361-8.373h1.338c1.598 2.75 2.375 5.656 2.326 8.723a17.69 17.69 0 01-2.326 8.582h-1.338c1.574-3.172 2.361-6.153 2.361-8.932z"/><path fill="#E93B36" d="M70.945 61.465l6.934-38.484c-25.312-1.733-16.991 23.23-6.934 38.484z"/><path fill="#E93B36" d="M70.945 61.465l.097.02 6.953-38.594-.109-.008a35.233 35.233 0 00-2.418-.087c-5.297 0-8.907 1.337-11.191 3.588-2.285 2.252-3.23 5.406-3.23 9.009.002 8.035 4.686 18.34 9.817 26.127l.136.207.043-.242-.098-.02.082-.053c-5.12-7.766-9.786-18.057-9.785-26.02 0-3.57.935-6.665 3.171-8.869 2.236-2.204 5.788-3.53 11.054-3.531.766 0 1.567.027 2.405.087l.007-.099-.097-.018-6.934 38.484.097.019.082-.053-.082.053z"/><path fill="#E93B36" d="M38.006 46.903c8.669 12.48 18.029 24.965 28.083 37.104.694-1.045 1.042-2.084 1.387-3.123l.694-4.506c-1.387-1.734-2.775-3.123-3.814-4.857C13.042 8.42 44.94 9.461 78.224 20.208l.348-2.773c-1.042-.694-2.429-1.388-3.814-1.733-62.409-26.697-49.926 12.135-36.752 31.201z"/><path fill="#E93B36" d="M38.006 46.903l-.081.057c8.671 12.48 18.033 24.969 28.089 37.107l.083.102.074-.109c.702-1.057 1.053-2.105 1.399-3.146l.002-.006.701-4.557-.026-.033c-1.392-1.742-2.776-3.125-3.806-4.848l-.004-.008-.004-.004C44.991 47.555 37.509 32.852 37.514 24.456c.002-3.553 1.325-5.968 3.643-7.516 2.32-1.547 5.652-2.217 9.659-2.216 7.511-.001 17.382 2.351 27.377 5.577l.113.037.37-2.953-.05-.034c-1.05-.698-2.445-1.396-3.845-1.746l-.023.096.039-.09C59.704 9.155 48.985 6.526 41.58 6.526c-5.3-.001-8.909 1.35-11.191 3.621-2.281 2.272-3.223 5.453-3.223 9.081.002 8.64 5.323 19.859 10.759 27.732l.081-.057.081-.057C32.664 39 27.359 27.79 27.362 19.228c0-3.596.932-6.718 3.165-8.94 2.234-2.225 5.783-3.564 11.052-3.565 7.359 0 18.061 2.619 33.14 9.07l.008.003.007.002c1.37.341 2.75 1.03 3.783 1.719l.055-.081-.097-.013-.348 2.773.097.013.03-.093c-10.006-3.231-19.887-5.587-27.438-5.587-4.028 0-7.396.669-9.768 2.249-2.374 1.579-3.733 4.079-3.731 7.679.006 8.507 7.516 23.207 26.963 47.126l.076-.063-.084.051c1.048 1.748 2.439 3.137 3.821 4.869l.077-.063-.098-.016-.694 4.506.098.016-.093-.031c-.346 1.039-.69 2.066-1.376 3.1l.082.055.075-.063c-10.052-12.137-19.41-24.619-28.078-37.098l-.08.057z"/><path fill="#E93B36" d="M78.572 17.435L80.65 6.686c.693-3.812-2.078-6.587-5.546-6.587H30.033C44.94 3.22 62.624 10.154 74.758 15.701c1.04.346 2.427 1.039 3.814 1.734z"/><path fill="#E93B36" d="M78.572 17.435l.096.018 2.079-10.747c.074-.405.109-.798.109-1.177 0-1.628-.649-3.014-1.693-3.988C78.118.565 76.68 0 75.104 0H30.033l-.02.195C44.907 3.313 62.588 10.246 74.717 15.79l.005.003.005.002c1.028.34 2.414 1.033 3.801 1.727l.116.059.024-.128-.096-.018.044-.089c-1.388-.693-2.776-1.388-3.827-1.737l-.031.093.041-.088C62.66 10.063 44.972 3.127 30.053.002l-.02.096v.099h45.071c3.06.003 5.554 2.184 5.556 5.331a6.4 6.4 0 01-.106 1.14l-2.078 10.747.096.02.044-.089-.044.089zm-48.194 37.79C20.67 43.436 14.084 33.731 9.577 26.103L.217 80.884c-.693 3.813 1.733 6.932 5.547 6.932h53.74c.691 0 1.039 0 1.733-.35-10.403-9.706-21.844-20.799-30.859-32.241z"/><path fill="#E93B36" d="M30.378 55.225l.076-.063c-9.706-11.785-16.289-21.486-20.793-29.11l-.136-.231L.12 80.866c-.081.443-.12.877-.12 1.299 0 1.627.582 3.066 1.595 4.098 1.013 1.029 2.457 1.65 4.169 1.65h53.74c.687.002 1.073-.002 1.777-.359l.126-.063-.104-.098C50.902 77.69 39.464 66.598 30.456 55.165l.001.002-.002-.004-.077.062-.077.061c9.021 11.449 20.465 22.545 30.868 32.252l.067-.072-.044-.088c-.682.342-.993.338-1.688.34H5.764C2.438 87.712.201 85.323.197 82.165c0-.41.038-.832.117-1.264l9.36-54.783-.097-.016-.084.05c4.51 7.633 11.099 17.342 20.81 29.135l.075-.062-.077.061.077-.061z"/><path fill="#FFF" d="M81.344 17.435c-1.387-.694-2.771-1.388-3.813-1.733 1.386.345 2.774 1.038 3.813 1.733zM66.089 84.006C56.035 71.868 46.675 59.383 38.006 46.903 24.832 27.837 12.349-10.995 74.758 15.701 62.624 10.154 44.94 3.22 30.033.099h-9.015c-3.468 0-7.281 2.775-7.975 6.587L9.577 26.103c4.507 7.628 11.094 17.333 20.802 29.123 9.015 11.441 20.456 22.535 30.858 32.24 2.08-.344 3.813-1.731 4.852-3.46z"/><path fill="#FFF" d="M64.356 71.52c1.039 1.734 2.427 3.123 3.814 4.857l2.774-14.912c-10.057-15.254-18.377-40.217 6.934-38.484l.346-2.773C44.94 9.461 13.042 8.42 64.356 71.52z"/><path fill="#717A7F" d="M117.749 60.426h-9.708L96.947 33.383 92.44 60.426h-8.67L93.827 3.22h8.666l-4.507 24.962L118.442 3.22h9.708l-24.269 27.042z"/><path fill="#717A7F" d="M117.749 60.426v-2.73h-7.876l-14.041-34.23-5.707 34.23h-3.102L96.12 5.952h3.105l-5.797 32.101 26.307-32.101h2.294L100.65 29.773l14.617 31.794 2.482-1.141v-2.73 2.73l2.481-1.14-13.118-28.536L134.271.489h-17.122l-14.605 17.822L105.762.489H91.534l-11.017 62.67h14.237l3.309-19.858 8.145 19.858h15.803l-1.781-3.873zm18.029 0h-8.67L137.165 3.22h9.015z"/><path fill="#717A7F" d="M135.778 60.426v-2.73h-5.416l9.096-51.744h3.449l-9.816 53.986 2.687.488v-2.73 2.73l2.687.489L149.452.489h-14.58l-11.017 62.67h14.203l.407-2.244zm50.272-52.7h-12.135l-9.36 52.7h-8.669l9.363-52.7h-11.441l1.039-4.852h32.242z"/><path fill="#717A7F" d="M186.05 7.726V4.995h-14.424l-9.36 52.701h-3.12l9.363-52.701h-11.324l.332-1.55-2.67-.571v2.731h28.865l-.333 1.549 2.671.572V4.995v2.731l2.671.573 1.747-8.157h-37.83l-2.209 10.316h11.56l-9.363 52.701h14.218l9.36-52.701h12.054l.463-2.159zm53.394-4.506l-22.191 57.206h-11.789L204.079 3.22h8.664l-.342 50.274v2.08c0-.35.342-1.045.342-2.08L230.772 3.22h8.672z"/><path fill="#717A7F" d="M239.444 3.22l-2.547-.988-21.514 55.463h-7.254l-1.252-51.744h3.115l-.324 47.533v2.09h5.463-1.863l1.838.316c.008-.045.025-.137.025-.316h-1.863l1.838.316-.814-.141.809.174.006-.033-.814-.141.809.174.002-.01c.016-.074.111-.395.201-.814.09-.426.172-.975.172-1.605h-2.732l2.572.924 17.381-48.467h6.748V3.22l-2.547-.988 2.545.988V.489H228.85L210.012 53.02v.475a2.561 2.561 0 01-.092.641c-.031.123-.07.26-.119.457-.043.207-.123.453-.133.982h5.463v-2.068l.361-53.018h-14.211l1.516 62.67h16.326L243.432.489h-3.988V3.22zm27.039 58.593h-23.922c-3.117 0-5.199-1.387-6.24-4.51-1.039-2.426-1.039-5.549-.695-8.666.695-3.467 1.736-6.588 3.818-9.016 2.078-3.119 4.852-4.852 7.629-4.852h11.783l-1.039 4.852h-5.545c-2.426 0-4.162.35-5.199 1.389-1.393 1.039-2.428 3.465-2.777 6.936-.346 1.73-.693 3.809-.346 5.549.346 2.428 1.039 3.463 2.773 3.463h12.133l4.854-28.083c.346-2.426.346-4.159 0-5.2-.344-1.385-1.73-2.427-4.158-2.427h-11.098l1.043-4.854h14.559c4.506 0 6.938 1.388 8.324 3.813.691 1.733.691 4.854 0 9.709l-5.897 31.897zm16.299 0h-8.672L285.557.792h8.662zm18.373 0h-8.668L303.239 1.14h9.01zm48.539-31.896c-.691 3.121-1.736 5.892-3.117 8.318-2.084 3.123-4.51 4.859-6.936 4.859h-12.139l.695-4.859h7.281c1.734 0 3.121-1.385 4.162-3.813 1.039-1.732 1.734-3.467 2.082-5.547.691-4.853 0-7.627-2.082-7.627h-8.32c-2.428 0-4.16 1.042-5.547 3.12-.697 1.388-1.391 3.469-1.736 6.24l-3.119 16.99c-.348 3.465-.695 5.896 0 6.932.691 1.734 2.428 2.428 5.551 2.428h15.254l-1.043 4.855h-20.109c-4.506 0-7.279-1.387-8.322-4.162-.691-2.076-.691-5.199 0-10.053l3.121-16.643c.695-4.853 2.08-8.32 3.473-10.401 2.076-2.772 5.195-4.16 9.705-4.16h15.602c2.775 0 4.506 1.733 5.203 5.2.69 2.428.69 5.201.341 8.323zm44.726-13.522l-38.834 72.463h-7.976l15.262-27.045-9.364-45.418h9.705l6.592 34.668 17.684-34.668z"/><path fill="#FFF" d="M12.349 83.657h-2.078l-2.427-6.246-1.387 6.246H4.722l2.08-13.176h2.081l-1.039 5.896 4.505-5.896h2.429l-5.201 6.24zm2.775 0h-2.082l2.43-13.176h1.733zM25.525 71.52h-2.774L20.67 83.657h-2.079L20.67 71.52h-2.426l.347-1.039h7.28z"/><path fill="#717A7F" d="M406.899 18.128h-2.774l-2.078 7.975h-2.08l2.08-7.975h-2.775v-.693h7.977z"/><path fill="#717A7F" d="M406.899 18.128v-.099h-2.85l-2.078 7.976h-1.875l2.078-7.976h-2.802v-.497h7.716l-.277.551.088.045v-.099.099l.088.044.349-.693.071-.144h-8.233v.891h2.746l-2.08 7.974h2.282l2.08-7.974h2.757l.028-.054zm9.363 7.975h-1.734l1.734-6.242-4.162 6.242h-1.728l-.698-6.242-1.73 6.242h-1.736l2.427-8.668h2.426l.691 6.587 4.51-6.587h2.428z"/><path fill="#717A7F" d="M416.262 26.103v-.098h-1.605l1.699-6.117-.176-.082-4.131 6.199h-1.59l-.687-6.155-.193-.015-1.709 6.17h-1.532l2.371-8.473h2.262l.711 6.766 4.631-6.766h2.246l-2.391 8.544.094.027v-.098.098l.094.026 2.463-8.794h-2.608l-4.388 6.411-.674-6.411h-2.588l-2.482 8.865h1.939l1.615-5.822.649 5.822h1.871l3.849-5.772-1.605 5.772h1.939l.02-.071z"/></svg>